<?xml version="1.0" encoding="UTF-8" standalone="no"?>
<!-- Created with Inkscape (http://www.inkscape.org/) -->
<svg xmlns:dc="http://purl.org/dc/elements/1.1/" xmlns:cc="http://creativecommons.org/ns#" xmlns:rdf="http://www.w3.org/1999/02/22-rdf-syntax-ns#" xmlns:svg="http://www.w3.org/2000/svg" xmlns="http://www.w3.org/2000/svg" xmlns:sodipodi="http://sodipodi.sourceforge.net/DTD/sodipodi-0.dtd" xmlns:inkscape="http://www.inkscape.org/namespaces/inkscape" width="597.54401" height="575.61896" id="svg3289" version="1.1" inkscape:version="0.47 r22583" sodipodi:docname="waiter.svg">
  <defs id="defs3291">
    <inkscape:perspective sodipodi:type="inkscape:persp3d" inkscape:vp_x="0 : 526.18109 : 1" inkscape:vp_y="0 : 1000 : 0" inkscape:vp_z="744.09448 : 526.18109 : 1" inkscape:persp3d-origin="372.04724 : 350.78739 : 1" id="perspective3297"/>
    <inkscape:perspective id="perspective3307" inkscape:persp3d-origin="0.5 : 0.33333333 : 1" inkscape:vp_z="1 : 0.5 : 1" inkscape:vp_y="0 : 1000 : 0" inkscape:vp_x="0 : 0.5 : 1" sodipodi:type="inkscape:persp3d"/>
    <inkscape:perspective id="perspective3467" inkscape:persp3d-origin="0.5 : 0.33333333 : 1" inkscape:vp_z="1 : 0.5 : 1" inkscape:vp_y="0 : 1000 : 0" inkscape:vp_x="0 : 0.5 : 1" sodipodi:type="inkscape:persp3d"/>
  </defs>
  <sodipodi:namedview id="base" pagecolor="#ffffff" bordercolor="#666666" borderopacity="1.0" inkscape:pageopacity="0.0" inkscape:pageshadow="2" inkscape:zoom="0.98994949" inkscape:cx="287.89371" inkscape:cy="282.6498" inkscape:document-units="px" inkscape:current-layer="layer1" showgrid="false" inkscape:window-width="940" inkscape:window-height="933" inkscape:window-x="138" inkscape:window-y="54" inkscape:window-maximized="0"/>
  <metadata id="metadata3294">
    <rdf:RDF>
      <cc:Work rdf:about="">
        <dc:format>image/svg+xml</dc:format>
        <dc:type rdf:resource="http://purl.org/dc/dcmitype/StillImage"/>
        <dc:title/>
      </cc:Work>
    </rdf:RDF>
  </metadata>
  <g inkscape:label="Layer 1" inkscape:groupmode="layer" id="layer1" transform="translate(-87.1063, -250.822)">
    <g id="g3678">
      <polygon transform="matrix(2.53294, 0, 0, 2.53294, -788.261, 70.9815)" id="polygon4726" points="412.583,256.587 404.916,277.587 419.916,287.921 396.583,297.587 436.25,297.921 422.583,277.254 434.916,257.254"/>
      <polygon transform="matrix(2.53294, 0, 0, 2.53294, -788.261, 70.9815)" id="polygon4728" points="453.583,254.587 463.916,273.921 451.25,297.921 491.916,298.254 467.583,285.921 479.582,274.254 474.25,252.254"/>
      <polygon transform="matrix(2.53294, 0, 0, 2.53294, -788.261, 70.9815)" style="fill: rgb(253, 216, 154);" id="polygon4730" points="406.916,199.587 474.25,215.921 473.916,150.921 492.582,146.921 476.25,98.254 411.916,97.254 406.25,141.587"/>
      <path id="path4732" d="m 288.87142,476.05154 c 0,0 96.70254,40.52449 124.9448,24.48339 l 0.85867,45.59289 c 0,0 -110.40067,0 -125.80347,-70.07628 z" style="fill: rgb(255, 255, 255);"/>
      <path id="path4734" d="m 412.13942,453.25509 c 0,0 -49.81278,25.32939 -64.16694,-25.32939 0,0 -27.86232,87.80686 63.32094,55.72466 0,0 72.61428,45.59036 83.58697,-38.84009 0,0 -47.27983,47.28237 -82.74097,8.44482 z"/>
      <polygon transform="matrix(2.53294, 0, 0, 2.53294, -788.261, 70.9815)" id="polygon4736" points="474.25,205.254 406.583,195.587 409.25,261.921 476.582,256.587" style="fill: rgb(216, 186, 121);"/>
      <polygon transform="matrix(2.53294, 0, 0, 2.53294, -788.261, 70.9815)" id="polygon4738" points="416.25,250.587 420.583,241.587 436.916,241.587 432.25,256.254" style="fill: rgb(128, 102, 70);"/>
      <polygon transform="matrix(2.53294, 0, 0, 2.53294, -788.261, 70.9815)" id="polygon4740" points="468.25,252.587 455.916,253.587 455.916,242.254 465.916,238.254" style="fill: rgb(129, 102, 71);"/>
      <g style="fill: rgb(129, 102, 71);" transform="matrix(2.53294, 0, 0, 2.53294, -788.261, 70.9815)" id="g4742">
        <polygon id="polygon4744" points="448.083,220.571 451.083,220.603 450.75,253.27 447.75,253.238" style="fill: rgb(129, 102, 71);"/>
      </g>
      <path id="path4746" d="m 252.69093,567.94149 c 0,0 53.85027,84.13662 104.27348,63.48304 0,0 56.20338,-1.94023 51.96831,-46.61114 l -156.24179,-16.8719 z" style="fill: rgb(255, 255, 255);"/>
      <path id="path4748" d="m 165.59836,775.77924 c 0,0 48.97184,0.846 48.12584,-1.68694 -0.84094,-2.53293 -11.8187,-141.84456 -11.8187,-141.84456 l -32.9282,6.75281 -8.44482,55.72465 5.06588,81.05404 z" style="fill: rgb(102, 102, 102);"/>
      <g transform="matrix(2.53294, 0, 0, 2.53294, -788.261, 70.9815)" id="g4750">
        <polygon id="polygon4752" points="381.08,253.159 382.413,274.493 379.419,274.681 378.086,253.347" style="fill: rgb(255, 255, 255);"/>
      </g>
      <g transform="matrix(2.53294, 0, 0, 2.53294, -788.261, 70.9815)" id="g4754">
        <polygon id="polygon4756" points="386.746,244.481 388.746,272.815 385.754,273.026 383.754,244.692" style="fill: rgb(255, 255, 255);"/>
      </g>
      <polygon transform="matrix(2.53294, 0, 0, 2.53294, -788.261, 70.9815)" id="polygon4758" points="367.25,213.587 361.25,224.587 390.583,233.921 411.916,219.253 409.25,199.587 389.916,218.587" style="fill: rgb(128, 102, 70);"/>
      <polygon transform="matrix(2.53294, 0, 0, 2.53294, -788.261, 70.9815)" id="polygon4760" points="468.916,203.254 508.25,213.921 530.582,205.921 539.916,212.921 508.582,227.921 471.25,215.254" style="fill: rgb(128, 102, 70);"/>
      <path style="fill: rgb(253, 216, 154);" id="path4762" d="m 161.59125,619.26136 -25.32938,-12.66469 c 0,0 -21.95298,-43.05996 -30.39527,-18.57404 0,0 -27.021389,2.5304 -11.823757,18.57404 0,0 -18.574039,31.24126 5.065878,26.17539 0,0 6.755349,25.32938 27.862329,0 l 31.24126,11.81869 3.37894,-25.32939 z"/>
      <polygon transform="matrix(2.53294, 0, 0, 2.53294, -788.261, 70.9815)" id="polygon4764" points="366.5,213.087 357.833,229.421 367.833,235.087 376.833,215.087" style="fill: rgb(86, 82, 72);"/>
      <path id="path4766" d="m 154.62567,614.51717 c 0,0 -32.08473,116.51518 -27.86232,114.82824 4.21987,-1.692 54.87865,2.53294 54.87865,2.53294 l 27.86232,-118.20718 -10.13175,10.97775 -44.7469,-10.13175 z" style="fill: rgb(204, 204, 207);"/>
      <g transform="matrix(2.53294, 0, 0, 2.53294, -788.261, 70.9815)" id="g4768">
        <polygon id="polygon4770" points="377.143,219.501 380.023,220.341 370.023,254.673 367.143,253.833" style="fill: rgb(255, 255, 255);"/>
      </g>
      <g transform="matrix(2.53294, 0, 0, 2.53294, -788.261, 70.9815)" id="g4772">
        <path id="path4774" d="m 379.389,256.204 -2.944,-0.566 c 2.442,-12.709 6.319,-33.518 6.317,-35.253 0,0.007 10e-4,0.15 0.064,0.342 l 2.847,-0.947 c 0.148,0.445 0.456,1.371 -6.284,36.424 l 0,0 z" style="fill: rgb(255, 255, 255);"/>
      </g>
      <polygon transform="matrix(2.53294, 0, 0, 2.53294, -788.261, 70.9815)" id="polygon4776" points="444.916,208.253 429.916,195.587 427.582,222.253 442.916,216.587 454.582,216.587 473.916,221.921 472.582,196.253 455.582,208.921" style="fill: rgb(212, 0, 0);"/>
      <polygon transform="matrix(2.53294, 0, 0, 2.53294, -788.261, 70.9815)" id="polygon4778" points="456.582,205.253 444.916,205.921 443.25,218.253 456.25,219.253" style="fill: rgb(253, 51, 1);"/>
      <polygon transform="matrix(2.53294, 0, 0, 2.53294, -788.261, 70.9815)" id="polygon4780" points="527.731,207.671 512.5,211.671 520.768,231.003 536,226.337" style="fill: rgb(86, 82, 72);"/>
      <ellipse transform="matrix(2.53294, 0, 0, 2.53294, -788.261, 70.9815)" id="ellipse4782" ry="6.8340001" rx="7.1669998" cy="121.087" cx="436.75" d="m 443.917,121.087 c 0,3.77431 -3.20878,6.834 -7.167,6.834 -3.95822,0 -7.167,-3.05969 -7.167,-6.834 0,-3.77432 3.20878,-6.834 7.167,-6.834 3.95822,0 7.167,3.05968 7.167,6.834 z" sodipodi:cx="436.75" sodipodi:cy="121.087" sodipodi:rx="7.1669998" sodipodi:ry="6.8340001"/>
      <ellipse transform="matrix(2.53294, 0, 0, 2.53294, -788.261, 70.9815)" id="ellipse4784" ry="6.8330002" rx="7.1659999" cy="120.42" cx="457.41599" d="m 464.58198,120.42 c 0,3.77376 -3.20832,6.833 -7.16599,6.833 -3.95768,0 -7.166,-3.05924 -7.166,-6.833 0,-3.77376 3.20832,-6.833 7.166,-6.833 3.95767,0 7.16599,3.05924 7.16599,6.833 z" sodipodi:cx="457.41599" sodipodi:cy="120.42" sodipodi:rx="7.1659999" sodipodi:ry="6.8330002"/>
      <path id="path4786" d="m 298.47379,596.46998 -1.8997,19.31366 c 0,0 15.83087,3.16617 17.41395,-10.76499 0,0 -0.94985,-9.81514 -15.51425,-8.54867 z" style="fill: rgb(238, 238, 238);"/>
      <path id="path4788" d="m 320.00377,583.17205 11.39823,8.86529 c 0,0 -20.89675,10.13175 -11.39823,-8.86529 z" style="fill: rgb(238, 238, 238);"/>
      <path id="path4790" d="m 337.10111,607.8682 c 0,0 18.04719,1.89971 12.03146,16.4641 l -14.66825,-0.52938 2.63679,-15.93472 z" style="fill: rgb(238, 238, 238);"/>
      <path id="path4792" d="m 370.02931,596.7866 14.88102,-10.13176 c 0,0 7.91543,9.49852 0.31661,14.88102 0,0 -9.1819,8.86528 -15.19763,-4.74926 z" style="fill: rgb(238, 238, 238);"/>
      <path id="path4794" d="m 373.5121,622.11598 17.73057,4.74926 c 0,0 1.89971,-6.96558 -5.38249,-12.34807 -7.2822,-5.3825 -10.76499,3.7994 -12.34808,7.59881 z" style="fill: rgb(238, 238, 238);"/>
      <path id="path4796" d="m 410.55633,592.98719 0.63323,19.31366 c 0,0 -10.76498,2.84955 -13.61454,-8.86529 0,0 -0.63324,-12.03146 12.98131,-10.44837 z" style="fill: rgb(238, 238, 238);"/>
      <path id="path4798" d="m 232.30077,460.85391 c 0,0 -1.68694,-139.31163 -10.97522,-153.66579 l 38.83754,-21.10698 4.22241,8.44228 c 0,0 154.50673,-10.97522 159.57261,-8.44228 l -0.84094,-10.13176 c 0,0 -16.88963,2.53294 -18.57657,-6.75534 0,0 22.79645,-26.17286 32.9282,-16.04111 0,0 53.19172,37.14808 -14.35163,83.58698 l -151.13285,5.90935 c 0,0 -14.35416,107.22689 -3.37641,115.67171 l -36.30714,2.53294 z"/>
      <path id="path4800" d="m 487.28158,588.34178 c 0,0 100.47661,81.90004 190.8164,17.73057 0,0 44.7469,-75.14216 -99.63061,-65.01041 0,0 -127.49294,5.90935 -91.18579,47.27984 z" style="fill: rgb(128, 130, 133);"/>
      <path id="path4802" d="m 503.32521,578.21002 c 0,0 86.11992,65.85641 140.15763,26.17539 0,0 32.0822,-34.61767 -13.51069,-41.37302 0,0 -148.59739,-8.44228 -126.64694,15.19763 z" style="fill: rgb(147, 149, 152);"/>
      <path id="path4804" d="m 625.75227,559.63852 -2.53294,32.9282 c 0,0 23.63738,10.97522 31.2362,0 l 0.846,-33.7742 c 0,0 -16.88457,-13.50817 -29.54926,0.846 z" style="fill: rgb(139, 215, 248);"/>
      <path id="path4806" d="m 564.96174,492.09011 -5.91188,89.49885 c 0,0 28.70326,21.10951 47.27984,0 l 13.51069,-92.03179 9.28575,-11.81869 -24.48338,-3.37894 6.75281,-58.25759 -27.01632,10.97775 1.68694,48.97184 -21.10445,16.03857 z" style="fill: rgb(139, 215, 248);"/>
      <path id="path4808" d="m 513.45696,563.01239 1.68694,34.62021 c 0,0 16.04364,16.88457 28.70833,-1.69201 l 2.53294,-29.54926 c 0,0 -16.04364,-16.04363 -32.92821,-3.37894 z" style="fill: rgb(139, 215, 248);"/>
      <path id="path4810" d="m 512.61096,566.39133 c 0,0 7.59882,38.84008 33.77421,0 0,0 -22.79645,-17.73057 -33.77421,0 z" style="fill: rgb(255, 255, 255);"/>
      <path id="path4812" d="m 624.90627,563.01239 c 0,0 21.95044,19.42258 30.39526,-4.21987 0,0 -17.73057,-14.35164 -29.54926,0.846" style="fill: rgb(255, 255, 255);"/>
    </g>
  </g>
</svg>